<?xml version="1.0" encoding="utf-8"?>
<!-- Generator: Adobe Illustrator 22.0.1, SVG Export Plug-In . SVG Version: 6.00 Build 0)  -->
<svg version="1.1" id="layer_1" xmlns="http://www.w3.org/2000/svg" xmlns:xlink="http://www.w3.org/1999/xlink" x="0px" y="0px"
	 viewBox="0 0 400 110" style="enable-background:new 0 0 400 110;" xml:space="preserve">
<style type="text/css">
	.hdmi_color{fill:#231815;}
</style>
<g>
	<polygon class="hdmi_color" points="106.252739,14.6106825 106.252739,73.4851074 82.847435,73.4851074 82.847435,52.3854408 
		42.6762161,52.3854408 42.6762161,73.4851074 19.6421127,73.4851074 19.6421127,14.6106825 42.6762161,14.6106825 
		42.6762161,38.6562958 82.847435,38.6562958 82.847435,14.6106825 	"/>
	<path class="hdmi_color" d="M180.3889008,29.2623863h-64.4949875l0.0939178-14.6517038h71.2209854
		c4.2363586,0,7.8772125,1.5077753,10.9158173,4.5143919c3.0411072,3.0149288,4.5640259,6.6648273,4.5640259,10.9623508v27.918457
		c0,4.3011208-1.5229187,7.9552383-4.5640259,10.9660645c-3.0386047,3.0108414-6.6794586,4.5131607-10.9158173,4.5131607
		h-71.2209854l-0.0939178-34.8288116h22.2967758l0.0932922,20.1783485h42.1049194V29.2623863z"/>
	<path class="hdmi_color" d="M316.754364,19.1286716c3.0058594,3.0113316,4.5119019,6.6697903,4.5119019,10.9690514v43.4176559h-22.2944336
		V29.2926579h-21.2341309v44.2227249h-22.194931V29.2926579h-21.2342682v44.2227249h-22.3148956V14.6106825h93.8892059
		C310.1171875,14.6106825,313.738678,16.1184578,316.754364,19.1286716z"/>
	<polygon class="hdmi_color" points="353.7245483,52.3854408 353.7245483,73.4851074 330.6922913,73.4851074 330.6922913,14.6106825 
		353.7245483,14.6106825 353.7245483,38.6562958 353.6348572,46.5831223 	"/>
	<polygon class="hdmi_color" points="21.1057262,88.0701828 22.9170895,88.0701828 22.9170895,92.1870728 27.6288643,92.1870728 
		27.6288643,88.0701828 29.4408493,88.0701828 29.4408493,98.4195251 27.6288643,98.4195251 27.6288643,93.7524109 
		22.9170895,93.7524109 22.9170895,98.4195251 21.1057262,98.4195251 	"/>
	<rect x="32.6278572" y="88.0701828" class="hdmi_color" width="1.8132252" height="10.3493414"/>
	<path class="hdmi_color" d="M46.7040176,98.4195251h-1.1600151l-0.2750549-1.2189484
		c-0.9704437,1.1025772-1.854908,1.4660873-3.116169,1.4660873c-3.1016502,0-4.95718-2.4655609-4.95718-5.4206924
		c0-2.9586029,1.8555298-5.4241638,4.95718-5.4241638c2.2619743,0,4.1605568,1.203064,4.4356117,3.5377426h-1.7695541
		c-0.1725769-1.3629913-1.3623695-2.0585022-2.6660576-2.0585022c-2.2190437,0-3.1459427,1.9580078-3.1459427,3.9449234
		c0,1.9845505,0.926899,3.94133,3.1459427,3.94133c1.8549118,0.027916,2.8702698-1.0880585,2.8980598-2.8411102h-2.7538948
		v-1.3776321h4.407074V98.4195251z"/>
	<polygon class="hdmi_color" points="49.6469879,88.0701828 51.4595947,88.0701828 51.4595947,92.1870728 56.1701355,92.1870728 
		56.1701355,88.0701828 57.9808769,88.0701828 57.9808769,98.4195251 56.1701355,98.4195251 56.1701355,93.7524109 
		51.4595947,93.7524109 51.4595947,98.4195251 49.6469879,98.4195251 	"/>
	<path class="hdmi_color" d="M66.2147675,88.0701828h4.2908249c3.1888733,0,4.5664978,2.3176804,4.5664978,5.1757889
		c0,2.8532715-1.3776245,5.1735535-4.5664978,5.1735535h-4.2908249V88.0701828 M68.0273743,96.940155h1.7822113
		c2.8411102,0,3.4498978-1.6222763,3.4498978-3.6941833c0-2.0741348-0.6087875-3.6989136-3.4498978-3.6989136h-1.7822113V96.940155z
		"/>
	<polygon class="hdmi_color" points="77.6957169,88.0701828 85.145134,88.0701828 85.145134,89.6355286 79.5070801,89.6355286 
		79.5070801,92.345871 84.7259216,92.345871 84.7259216,93.8251114 79.5070801,93.8251114 79.5070801,96.8540649 
		85.2474899,96.8540649 85.2474899,98.4195251 77.6957169,98.4195251 	"/>
	<polygon class="hdmi_color" points="87.8422089,88.0701828 94.9886627,88.0701828 94.9886627,89.6355286 89.6546936,89.6355286 
		89.6546936,92.345871 94.3361969,92.345871 94.3361969,93.8251114 89.6546936,93.8251114 89.6546936,98.4195251 
		87.8422089,98.4195251 	"/>
	<rect x="97.4529877" y="88.0701828" class="hdmi_color" width="1.8119845" height="10.3493414"/>
	<polygon class="hdmi_color" points="102.4241867,88.0701828 104.3372879,88.0701828 109.0642014,95.6934204 109.0933685,95.6934204 
		109.0933685,88.0701828 110.8180008,88.0701828 110.8180008,98.4195251 108.9042816,98.4195251 104.1936188,90.8083267 
		104.1488266,90.8083267 104.1488266,98.4195251 102.4241867,98.4195251 	"/>
	<rect x="113.9766083" y="88.0701828" class="hdmi_color" width="1.8124734" height="10.3493414"/>
	<polygon class="hdmi_color" points="118.0366592,88.0701828 126.414093,88.0701828 126.414093,89.6355286 123.1239929,89.6355286 
		123.1239929,98.4195251 121.3127441,98.4195251 121.3127441,89.6355286 118.0366592,89.6355286 	"/>
	<rect x="128.6325226" y="88.0701828" class="hdmi_color" width="1.8118527" height="10.3493414"/>
	<path class="hdmi_color" d="M143.0413055,93.2459717c0,2.9551315-1.8556671,5.4206924-4.9573059,5.4206924
		c-3.1027679,0-4.9576874-2.4655609-4.9576874-5.4206924c0-2.9586029,1.8549194-5.4241638,4.9576874-5.4241638
		C141.1856384,87.8218079,143.0413055,90.2873688,143.0413055,93.2459717 M134.938797,93.2459717
		c0,1.9845505,0.9268951,3.94133,3.1452026,3.94133c2.217804,0,3.1446991-1.9567795,3.1446991-3.94133
		c0-1.9869156-0.9268951-3.9449234-3.1446991-3.9449234C135.8656921,89.3010483,134.938797,91.2590561,134.938797,93.2459717z"/>
	<polygon class="hdmi_color" points="145.6363831,88.0701828 147.548996,88.0701828 152.2752838,95.6934204 152.3038177,95.6934204 
		152.3038177,88.0701828 154.0290833,88.0701828 154.0290833,98.4195251 152.1153717,98.4195251 147.4047089,90.8083267 
		147.3611603,90.8083267 147.3611603,98.4195251 145.6363831,98.4195251 	"/>
	<polygon class="hdmi_color" points="162.2042999,88.0701828 164.7552185,88.0701828 167.6109619,96.1731873 167.6399994,96.1731873 
		170.4241791,88.0701828 172.9455566,88.0701828 172.9455566,98.4195251 171.2201691,98.4195251 171.2201691,90.4327774 
		171.1917572,90.4327774 168.3214874,98.4195251 166.8288574,98.4195251 163.957962,90.4327774 163.9289398,90.4327774 
		163.9289398,98.4195251 162.2042999,98.4195251 	"/>
	<path class="hdmi_color" d="M176.0186768,88.0701828h1.8113556v6.0312271c0,1.3896484,0.0878448,2.9986725,2.4364166,2.9986725
		c2.3468323,0,2.4346771-1.609024,2.4346771-2.9986725v-6.0312271h1.8119812v6.6248779
		c0,2.6509247-1.6956177,3.9716034-4.2466583,3.9716034c-2.5515442,0-4.2477722-1.3206787-4.2477722-3.9716034V88.0701828z"/>
	<polygon class="hdmi_color" points="187.6147614,88.0701828 189.4261322,88.0701828 189.4261322,96.8540649 194.690979,96.8540649 
		194.690979,98.4195251 187.6147614,98.4195251 	"/>
	<polygon class="hdmi_color" points="194.6327972,88.0701828 203.0109863,88.0701828 203.0109863,89.6355286 199.7202454,89.6355286 
		199.7202454,98.4195251 197.9090118,98.4195251 197.9090118,89.6355286 194.6327972,89.6355286 	"/>
	<rect x="205.2294006" y="88.0701828" class="hdmi_color" width="1.8124808" height="10.3493414"/>
	<polygon class="hdmi_color" points="210.2465057,88.0701828 212.796936,88.0701828 215.6525574,96.1731873 215.680481,96.1731873 
		218.4634094,88.0701828 220.9871521,88.0701828 220.9871521,98.4195251 219.2631378,98.4195251 219.2631378,90.4327774 
		219.2328644,90.4327774 216.3613586,98.4195251 214.8687134,98.4195251 211.9996948,90.4327774 211.9694214,90.4327774 
		211.9694214,98.4195251 210.2465057,98.4195251 	"/>
	<polygon class="hdmi_color" points="224.1760254,88.0701828 231.6260681,88.0701828 231.6260681,89.6355286 225.9873962,89.6355286 
		225.9873962,92.345871 231.2068481,92.345871 231.2068481,93.8251114 225.9873962,93.8251114 225.9873962,96.8540649 
		231.7277985,96.8540649 231.7277985,98.4195251 224.1760254,98.4195251 	"/>
	<path class="hdmi_color" d="M234.3206635,88.0701828h4.2914429c3.1901093,0,4.5663757,2.3176804,4.5663757,5.1757889
		c0,2.8532715-1.3762665,5.1735535-4.5663757,5.1735535h-4.2914429V88.0701828 M236.1356201,96.940155h1.7822113
		c2.8411102,0,3.4481659-1.6222763,3.4481659-3.6941833c0-2.0741348-0.6070557-3.6989136-3.4481659-3.6989136h-1.7822113V96.940155z
		"/>
	<rect x="245.8016052" y="88.0701828" class="hdmi_color" width="1.8124808" height="10.3493414"/>
	<path class="hdmi_color" d="M253.616272,88.0701828h1.9276123l3.9873657,10.3493423h-1.9446106l-0.9692078-2.7406158h-4.1327667
		l-0.9704437,2.7406158h-1.8706665L253.616272,88.0701828 M252.976593,94.3025055h3.1611023l-1.5497284-4.4488678h-0.0435486
		L252.976593,94.3025055z"/>
	<rect x="266.5765991" y="88.0701828" class="hdmi_color" width="1.8113643" height="10.3493414"/>
	<polygon class="hdmi_color" points="271.5440674,88.0701828 273.4596558,88.0701828 278.1859436,95.6934204 278.2163391,95.6934204 
		278.2163391,88.0701828 279.9403687,88.0701828 279.9403687,98.4195251 278.0260315,98.4195251 273.3154907,90.8083267 
		273.2718201,90.8083267 273.2718201,98.4195251 271.5440674,98.4195251 	"/>
	<polygon class="hdmi_color" points="282.1163635,88.0701828 290.4920654,88.0701828 290.4920654,89.6355286 287.2025757,89.6355286 
		287.2025757,98.4195251 285.388855,98.4195251 285.388855,89.6355286 282.1163635,89.6355286 	"/>
	<polygon class="hdmi_color" points="292.7104797,88.0701828 300.1592712,88.0701828 300.1592712,89.6355286 294.5229492,89.6355286 
		294.5229492,92.345871 299.7400513,92.345871 299.7400513,93.8251114 294.5229492,93.8251114 294.5229492,96.8540649 
		300.2610168,96.8540649 300.2610168,98.4195251 292.7104797,98.4195251 	"/>
	<path class="hdmi_color" d="M302.8562317,88.0701828h4.9432983c2.2619629,0,3.4190063,1.0419083,3.4190063,2.7963257
		c0,1.9858017-1.3739014,2.4933548-1.7082825,2.6097183v0.0290451c0.6226807,0.0872192,1.5374451,0.5513458,1.5374451,2.1881485
		c0,1.2043152,0.1708374,2.3068848,0.5658569,2.7261047h-1.9433594c-0.2763062-0.4483871-0.2763062-1.0153656-0.2763062-1.5217896
		c0-1.899826-0.3912964-2.7406235-2.057251-2.7406235h-2.6679382v4.262413h-1.8124695V88.0701828 M304.6687012,92.7807236h2.9720154
		c1.144989,0,1.7701721-0.5644989,1.7701721-1.6525574c0-1.3194427-0.8565369-1.5811081-1.7991943-1.5811081h-2.9429932V92.7807236z
		"/>
	<polygon class="hdmi_color" points="314.0778809,88.0701828 321.2225952,88.0701828 321.2225952,89.6355286 315.8880005,89.6355286 
		315.8880005,92.345871 320.5707397,92.345871 320.5707397,93.8251114 315.8880005,93.8251114 315.8880005,98.4195251 
		314.0778809,98.4195251 	"/>
	<path class="hdmi_color" d="M325.6618042,88.0701828h1.9252625l3.9873352,10.3493423h-1.9410095l-0.9729004-2.7406158h-4.1303101
		l-0.9740295,2.7406158h-1.8683167L325.6618042,88.0701828 M325.020874,94.3025055h3.1610718l-1.5495911-4.4488678h-0.0448914
		L325.020874,94.3025055z"/>
	<path class="hdmi_color" d="M340.5618896,91.3595505c-0.3053284-1.1885529-1.0722961-2.0585022-2.5818176-2.0585022
		c-2.2184143,0-3.1440735,1.9580078-3.1440735,3.9449234c0,1.9845505,0.9256592,3.94133,3.1440735,3.94133
		c1.6113586,0,2.4945984-1.203064,2.6375122-2.7103424h1.7714233c-0.146637,2.4789581-1.901062,4.1897049-4.4089355,4.1897049
		c-3.1005249,0-4.9554443-2.4655609-4.9554443-5.4206924c0-2.9586029,1.8549194-5.4241638,4.9554443-5.4241638
		c2.335907,0.0157547,4.1750793,1.3048019,4.3919373,3.5377426H340.5618896z"/>
	<polygon class="hdmi_color" points="345.0531921,88.0701828 352.5044861,88.0701828 352.5044861,89.6355286 346.8669128,89.6355286 
		346.8669128,92.345871 352.0852661,92.345871 352.0852661,93.8251114 346.8669128,93.8251114 346.8669128,96.8540649 
		352.6062012,96.8540649 352.6062012,98.4195251 345.0531921,98.4195251 	"/>
	<path class="hdmi_color" d="M365.4162903,16.2566662h-2.6000671v-1.4230366h6.7448425v1.4230366h-2.6000366v7.0308228h-1.5447388
		V16.2566662 M371.552948,14.8336296h2.3977051l2.2159729,5.7107601l2.1761169-5.7107601h2.3964539v8.4538593h-1.5447693v-6.461483
		h-0.0411682l-2.3760071,6.461483h-1.2587585l-2.3796082-6.461483h-0.0411682v6.461483h-1.5447693V14.8336296z"/>
	<rect x="60.2163048" y="93.0400238" class="hdmi_color" width="3.6776836" height="0.9523195"/>
</g>
</svg>
